<svg width="41" height="40" viewBox="0 0 41 40" fill="none" xmlns="http://www.w3.org/2000/svg">
<path fill-rule="evenodd" clip-rule="evenodd" d="M2.87402 21.6139C1.70593 22.782 1.70593 24.6758 2.87402 25.8439L14.1541 37.1239C15.3221 38.292 17.216 38.292 18.3841 37.1239L37.1219 18.3861C37.7562 17.7518 38.0724 16.8662 37.9831 15.9735L36.9576 5.71892C36.816 4.30238 35.6956 3.18197 34.279 3.04032L24.0245 2.01486C23.1318 1.92559 22.2462 2.24172 21.6118 2.87608L2.87402 21.6139ZM32.4841 13.1539C34.0416 11.5964 34.0416 9.07129 32.4841 7.51384C30.9267 5.95639 28.4015 5.95639 26.8441 7.51384C25.2866 9.07129 25.2866 11.5964 26.8441 13.1539C28.4015 14.7113 30.9267 14.7113 32.4841 13.1539Z" fill="#4E2FA9"/>
<path d="M9.40002 22H25.4M21.4 16.5C21.4 17.8807 20.2807 19 18.9 19C17.5193 19 16.4 17.8807 16.4 16.5C16.4 15.1193 17.5193 14 18.9 14C20.2807 14 21.4 15.1193 21.4 16.5ZM19.4 27.5C19.4 28.8807 18.2807 30 16.9 30C15.5193 30 14.4 28.8807 14.4 27.5C14.4 26.1193 15.5193 25 16.9 25C18.2807 25 19.4 26.1193 19.4 27.5Z" stroke="#F3AC00" stroke-width="2"/>
</svg>
