<svg width="25" height="22" viewBox="0 0 25 22" fill="none" xmlns="http://www.w3.org/2000/svg">
<path d="M5.83333 4.16683L8.16667 12.3335H21L23.3333 4.16683H5.83333ZM5.83333 4.16683L5.25 1.8335H0M9.33333 20.5002C8.04467 20.5002 7 19.4555 7 18.1668C7 16.8782 8.04467 15.8335 9.33333 15.8335C10.622 15.8335 11.6667 16.8782 11.6667 18.1668C11.6667 19.4555 10.622 20.5002 9.33333 20.5002ZM19.8333 20.5002C18.5447 20.5002 17.5 19.4555 17.5 18.1668C17.5 16.8782 18.5447 15.8335 19.8333 15.8335C21.122 15.8335 22.1667 16.8782 22.1667 18.1668C22.1667 19.4555 21.122 20.5002 19.8333 20.5002Z" stroke="currentColor" stroke-width="2" stroke-linejoin="round"/>
</svg>
