<svg width="16" height="16" viewBox="0 0 16 16" fill="none" xmlns="http://www.w3.org/2000/svg">
<path fill-rule="evenodd" clip-rule="evenodd" d="M10.5 9H8C7.448 9 7 8.553 7 8V5C7 4.447 7.448 4 8 4C8.552 4 9 4.447 9 5V7H10.5C11.053 7 11.5 7.447 11.5 8C11.5 8.553 11.053 9 10.5 9Z" fill="currentColor"/>
<mask id="path-2-inside-1" fill="white">
<path fill-rule="evenodd" clip-rule="evenodd" d="M8 0C3.5888 0 0 3.5888 0 8C0 12.4112 3.5888 16 8 16C12.4112 16 16 12.4112 16 8C16 3.5888 12.4112 0 8 0Z"/>
</mask>
<path d="M8 -2C2.48423 -2 -2 2.48423 -2 8H2C2 4.69337 4.69337 2 8 2V-2ZM-2 8C-2 13.5158 2.48423 18 8 18V14C4.69337 14 2 11.3066 2 8H-2ZM8 18C13.5158 18 18 13.5158 18 8H14C14 11.3066 11.3066 14 8 14V18ZM18 8C18 2.48423 13.5158 -2 8 -2V2C11.3066 2 14 4.69337 14 8H18Z" fill="currentColor" mask="url(#path-2-inside-1)"/>
</svg>
