<svg width="15" height="15" viewBox="0 0 15 15" fill="none" xmlns="http://www.w3.org/2000/svg">
<path fill-rule="evenodd" clip-rule="evenodd" d="M4.91635 5.68663L8.1651 6.34725C8.41135 6.39663 8.60322 6.5885 8.65322 6.83475L9.31322 10.0835L11.512 3.48788L4.91635 5.68663ZM9.16683 13.1247C9.1537 13.1247 9.1412 13.1241 9.1287 13.1235C8.8462 13.1066 8.61058 12.9016 8.5537 12.6247L7.51058 7.48912L2.37558 6.44537C2.09808 6.38912 1.89308 6.15349 1.8762 5.87099C1.8587 5.58849 2.0337 5.32974 2.30183 5.24037L12.3018 1.90724C12.5268 1.83099 12.7743 1.89037 12.9418 2.05787C13.1093 2.22537 13.1675 2.47287 13.0931 2.69787L9.75933 12.6979C9.6737 12.9541 9.43433 13.1247 9.16683 13.1247Z" fill="#E8903F"/>
<mask id="mask0" mask-type="alpha" maskUnits="userSpaceOnUse" x="1" y="1" width="13" height="13">
<path fill-rule="evenodd" clip-rule="evenodd" d="M4.91635 5.68663L8.1651 6.34725C8.41135 6.39663 8.60322 6.5885 8.65322 6.83475L9.31322 10.0835L11.512 3.48788L4.91635 5.68663ZM9.16683 13.1247C9.1537 13.1247 9.1412 13.1241 9.1287 13.1235C8.8462 13.1066 8.61058 12.9016 8.5537 12.6247L7.51058 7.48912L2.37558 6.44537C2.09808 6.38912 1.89308 6.15349 1.8762 5.87099C1.8587 5.58849 2.0337 5.32974 2.30183 5.24037L12.3018 1.90724C12.5268 1.83099 12.7743 1.89037 12.9418 2.05787C13.1093 2.22537 13.1675 2.47287 13.0931 2.69787L9.75933 12.6979C9.6737 12.9541 9.43433 13.1247 9.16683 13.1247Z" fill="white"/>
</mask>
<g mask="url(#mask0)">
</g>
</svg>
