<svg width="14" height="18" viewBox="0 0 14 18" fill="none" xmlns="http://www.w3.org/2000/svg">
<path d="M7.05118 1.0002L7.06038 0.000197768H7.05118V1.0002ZM11.2858 2.87422L12.0136 2.18853L12.0136 2.1885L11.2858 2.87422ZM7.04958 1.0002L7.04141 2.0002H7.04958V1.0002ZM2.78459 2.80366L3.5012 3.50113L3.50135 3.50098L2.78459 2.80366ZM2.71415 11.6404L3.52784 11.0592L3.48853 11.0041L3.44216 10.9549L2.71415 11.6404ZM6.36356 16.7489L5.54987 17.3302L5.58974 17.386L5.63685 17.4358L6.36356 16.7489ZM6.93351 17L6.92208 17.9999L6.92589 17.9999L6.93351 17ZM7.50666 16.7579L8.22611 17.4525L8.27267 17.4042L8.31238 17.3502L7.50666 16.7579ZM11.2161 11.7118L10.499 11.0148L10.4511 11.0641L10.4104 11.1195L11.2161 11.7118ZM7.04199 2.00016C8.36914 2.01236 9.61483 2.55893 10.5579 3.55994L12.0136 2.1885C10.7057 0.800212 8.94477 0.0175716 7.06038 0.000240088L7.04199 2.00016ZM7.04958 2.0002H7.05118V0.000197768H7.04958V2.0002ZM3.50135 3.50098C4.45975 2.51587 5.71358 1.98932 7.04141 2.00016L7.05775 0.000231147C5.17083 -0.01518 3.39722 0.739894 2.06783 2.10634L3.50135 3.50098ZM3.44216 10.9549C1.4962 8.88846 1.52315 5.53347 3.5012 3.50113L2.06798 2.10619C-0.657626 4.90659 -0.69311 9.48092 1.98614 12.326L3.44216 10.9549ZM7.17726 16.1676L3.52784 11.0592L1.90045 12.2217L5.54987 17.3302L7.17726 16.1676ZM6.94494 16C7.00413 16.0007 7.05624 16.026 7.09028 16.062L5.63685 17.4358C5.97027 17.7886 6.43223 17.9943 6.92208 17.9999L6.94494 16ZM6.78721 16.0634C6.82456 16.0247 6.88014 15.9995 6.94113 16L6.92589 17.9999C7.41755 18.0037 7.88618 17.8046 8.22611 17.4525L6.78721 16.0634ZM10.4104 11.1195L6.70094 16.1656L8.31238 17.3502L12.0218 12.3041L10.4104 11.1195ZM10.5579 3.55991C12.5034 5.62523 12.4771 8.97968 10.499 11.0148L11.9332 12.4088C14.6571 9.60631 14.6933 5.03309 12.0136 2.18853L10.5579 3.55991ZM8 7C8 7.55228 7.55229 8 7 8V10C8.65685 10 10 8.65685 10 7H8ZM7 6C7.55229 6 8 6.44772 8 7H10C10 5.34315 8.65685 4 7 4V6ZM6 7C6 6.44772 6.44772 6 7 6V4C5.34315 4 4 5.34315 4 7H6ZM7 8C6.44772 8 6 7.55228 6 7H4C4 8.65685 5.34315 10 7 10V8Z" fill="currentColor"/>
</svg>
