<svg width="40" height="40" viewBox="0 0 40 40" fill="none" xmlns="http://www.w3.org/2000/svg">
<path fill-rule="evenodd" clip-rule="evenodd" d="M6.94097 12C8.36056 15.2727 11.0558 18.2039 12.6768 19.7821C13.4104 20.4963 14.575 20.4814 15.2949 19.7533C16.8871 18.1429 19.5457 15.1764 20.9905 12H25.7574C26.553 12 27.3161 12.3161 27.8787 12.8787L36.1213 21.1213C36.6839 21.6839 37 22.447 37 23.2426V29C37 31.2091 35.2091 33 33 33H32.874C32.4299 34.7252 30.8638 36 29 36C27.1362 36 25.5701 34.7252 25.126 33H14.874C14.4299 34.7252 12.8638 36 11 36C9.13616 36 7.57006 34.7252 7.12602 33H6C3.79086 33 2 31.2091 2 29V16C2 13.7909 3.79086 12 6 12H6.94097ZM25 21L25 17.4142C25 16.5233 26.0772 16.0771 26.7071 16.7071L30.2929 20.2929C30.9229 20.9229 30.4767 22 29.5858 22H26C25.4477 22 25 21.5523 25 21Z" fill="#4E2FA9"/>
<path d="M14 17L13.3448 17.7554L14.6761 17.7368L14 17ZM14 3C10.7091 3 8 5.62917 8 8.90339H10C10 6.7703 11.7767 5 14 5V3ZM8 8.90339C8 11.2142 9.39923 13.4298 10.651 14.9783C11.2962 15.7764 11.9446 16.4485 12.4428 16.9311C12.6925 17.1729 12.9059 17.3686 13.0641 17.51C13.1433 17.5807 13.2086 17.6379 13.2575 17.6803C13.282 17.7015 13.3022 17.7189 13.3176 17.7321C13.3249 17.7383 13.3322 17.7446 13.3366 17.7484C13.3391 17.7505 13.341 17.7522 13.3425 17.7535C13.3432 17.7541 13.3438 17.7546 13.3442 17.7549C13.3446 17.7553 13.3448 17.7554 13.3448 17.7554L14.6552 16.2446C14.5647 16.166 13.3729 15.164 12.2064 13.721C11.0057 12.2357 10 10.4854 10 8.90339H8ZM14.6761 17.7368C14.676 17.7369 14.6766 17.7363 14.6781 17.735C14.6795 17.7337 14.6814 17.732 14.6838 17.7298C14.689 17.7251 14.6943 17.7203 14.7023 17.713C14.7175 17.6993 14.7375 17.6812 14.7616 17.6591C14.81 17.6149 14.8747 17.5554 14.9533 17.4817C15.1104 17.3343 15.3226 17.1308 15.571 16.8805C16.0667 16.3809 16.7121 15.6894 17.3543 14.8803C18.5928 13.32 20 11.1025 20 8.90374H18C18 10.3634 17.0019 12.1072 15.7878 13.6369C14.6152 15.1142 13.4177 16.1771 13.3239 16.2632L14.6761 17.7368ZM20 8.90374C20 5.62951 17.2902 3 14 3V5C16.2226 5 18 6.77065 18 8.90374H20ZM15 9C15 9.55228 14.5523 10 14 10V12C15.6569 12 17 10.6569 17 9H15ZM14 10C13.4477 10 13 9.55228 13 9H11C11 10.6569 12.3431 12 14 12V10ZM13 9C13 8.44772 13.4477 8 14 8V6C12.3431 6 11 7.34315 11 9H13ZM14 8C14.5523 8 15 8.44772 15 9H17C17 7.34315 15.6569 6 14 6V8Z" fill="#F3AC00"/>
</svg>
