<svg width="41" height="40" viewBox="0 0 41 40" fill="none" xmlns="http://www.w3.org/2000/svg">
<path d="M18.0056 3.21099C19.5006 1.93694 21.6995 1.93694 23.1945 3.21099L25.4313 5.11717C26.0719 5.66313 26.8685 5.99308 27.7076 6.06003L30.6371 6.29381C32.5951 6.45006 34.15 8.00491 34.3062 9.96294L34.54 12.8925C34.607 13.7315 34.9369 14.5281 35.4829 15.1687L37.389 17.4055C38.6631 18.9006 38.6631 21.0994 37.389 22.5945L35.4829 24.8313C34.9369 25.4719 34.607 26.2685 34.54 27.1075L34.3062 30.0371C34.15 31.9951 32.5951 33.5499 30.6371 33.7062L27.7076 33.94C26.8685 34.0069 26.0719 34.3369 25.4313 34.8828L23.1945 36.789C21.6995 38.0631 19.5006 38.0631 18.0056 36.789L15.7688 34.8828C15.1281 34.3369 14.3316 34.0069 13.4925 33.94L10.563 33.7062C8.60494 33.5499 7.0501 31.9951 6.89385 30.0371L6.66007 27.1075C6.59311 26.2685 6.26317 25.4719 5.7172 24.8313L3.81103 22.5945C2.53697 21.0994 2.53697 18.9006 3.81103 17.4055L5.7172 15.1687C6.26317 14.5281 6.59311 13.7315 6.66007 12.8925L6.89385 9.96295C7.0501 8.00491 8.60494 6.45006 10.563 6.29381L13.4925 6.06003C14.3316 5.99308 15.1281 5.66313 15.7688 5.11717L18.0056 3.21099Z" fill="#4E2FA9"/>
<path d="M14.6 19.2857L18.9637 25L26.6 15" stroke="#F3AC00" stroke-width="2"/>
</svg>
