<svg width="38" height="40" viewBox="0 0 38 40" fill="none" xmlns="http://www.w3.org/2000/svg">
<path d="M5.23529 40H35.7647C36.9992 40 38 38.9992 38 37.7647V20V10.9272C38 10.3301 37.7798 9.75405 37.3815 9.30924L29.0465 0H20.5H5.23529C4.00078 0 3 1.00077 3 2.23529V37.7647C3 38.9992 4.00078 40 5.23529 40Z" fill="#EDEDED"/>
<path d="M29 10L29.0798 0L38 10H29Z" fill="#D3D3D3"/>
<path d="M0 17C0 15.3431 1.34315 14 3 14H24C25.6569 14 27 15.3431 27 17V23C27 24.6569 25.6569 26 24 26H3C1.34315 26 0 24.6569 0 23V17Z" fill="#E8903F"/>
<path d="M5.74963 23.5H6.83413V21.2365H8.42713C8.48713 21.2365 8.56663 21.2335 8.66563 21.2275C8.76763 21.2215 8.86063 21.2125 8.94463 21.2005C9.50263 21.1135 9.91663 20.881 10.1866 20.503C10.4596 20.122 10.5961 19.6645 10.5961 19.1305C10.5961 18.5935 10.4611 18.136 10.1911 17.758C9.92413 17.377 9.50863 17.143 8.94463 17.056C8.86063 17.041 8.76913 17.032 8.67013 17.029C8.57113 17.023 8.49013 17.02 8.42713 17.02H5.74963V23.5ZM6.83413 20.224V18.037H8.38213C8.44213 18.037 8.50963 18.04 8.58463 18.046C8.65963 18.052 8.72863 18.0625 8.79163 18.0775C8.97163 18.1225 9.11263 18.2035 9.21463 18.3205C9.31963 18.4345 9.39313 18.5635 9.43513 18.7075C9.48013 18.8515 9.50263 18.9925 9.50263 19.1305C9.50263 19.2685 9.48013 19.4095 9.43513 19.5535C9.39313 19.6975 9.31963 19.8265 9.21463 19.9405C9.11263 20.0545 8.97163 20.134 8.79163 20.179C8.72863 20.197 8.65963 20.209 8.58463 20.215C8.50963 20.221 8.44213 20.224 8.38213 20.224H6.83413ZM11.4977 23.5H13.5632C13.6142 23.5 13.7207 23.4985 13.8827 23.4955C14.0477 23.4925 14.2037 23.482 14.3507 23.464C14.8667 23.398 15.3017 23.2165 15.6557 22.9195C16.0097 22.6195 16.2782 22.2385 16.4612 21.7765C16.6442 21.3145 16.7357 20.809 16.7357 20.26C16.7357 19.711 16.6442 19.2055 16.4612 18.7435C16.2782 18.2815 16.0097 17.9005 15.6557 17.6005C15.3017 17.3005 14.8667 17.119 14.3507 17.056C14.2007 17.038 14.0447 17.0275 13.8827 17.0245C13.7237 17.0215 13.6172 17.02 13.5632 17.02H11.4977V23.5ZM12.6002 22.4785V18.0415H13.5632C13.6532 18.0415 13.7672 18.0445 13.9052 18.0505C14.0432 18.0535 14.1677 18.067 14.2787 18.091C14.5787 18.148 14.8247 18.2815 15.0167 18.4915C15.2087 18.7015 15.3512 18.961 15.4442 19.27C15.5402 19.576 15.5882 19.906 15.5882 20.26C15.5882 20.599 15.5432 20.923 15.4532 21.232C15.3632 21.541 15.2207 21.8035 15.0257 22.0195C14.8337 22.2325 14.5847 22.369 14.2787 22.429C14.1677 22.45 14.0432 22.4635 13.9052 22.4695C13.7672 22.4755 13.6532 22.4785 13.5632 22.4785H12.6002ZM17.7994 23.5H18.8839V20.8H21.1609V19.72H18.8839V18.1045H21.7009V17.02H17.7994V23.5Z" fill="white"/>
</svg>
