<svg width="18" height="18" viewBox="0 0 18 18" fill="none" xmlns="http://www.w3.org/2000/svg">
<path d="M9.00022 0.00867567C5.31384 0.00867567 1.81324 -0.318992 0.476156 3.10985C-0.0761422 4.52602 0.00406296 6.36522 0.00406296 8.99873C0.00406296 11.3097 -0.0700506 13.4816 0.476156 14.8866C1.8102 18.3175 5.33922 17.9888 8.99819 17.9888C12.5282 17.9888 16.1679 18.356 17.5212 14.8866C18.0746 13.4562 17.9933 11.6444 17.9933 8.99873C17.9933 5.48671 18.1873 3.21941 16.4826 1.51716C14.7567 -0.207402 12.4226 0.00867567 8.99616 0.00867567H9.00022ZM8.19411 1.62875C15.8836 1.61658 16.8623 0.762414 16.3222 12.6284C16.1303 16.8252 12.9323 16.3647 9.00124 16.3647C1.83355 16.3647 1.62745 16.1597 1.62745 8.99467C1.62745 1.74643 2.19599 1.63281 8.19411 1.62672V1.62875ZM13.8024 3.12101C13.2064 3.12101 12.7232 3.60389 12.7232 4.19937C12.7232 4.79485 13.2064 5.27773 13.8024 5.27773C14.3983 5.27773 14.8816 4.79485 14.8816 4.19937C14.8816 3.60389 14.3983 3.12101 13.8024 3.12101ZM9.00022 4.38197C6.44889 4.38197 4.38082 6.44942 4.38082 8.99873C4.38082 11.548 6.44889 13.6145 9.00022 13.6145C11.5516 13.6145 13.6186 11.548 13.6186 8.99873C13.6186 6.44942 11.5516 4.38197 9.00022 4.38197ZM9.00022 6.00205C12.9648 6.00205 12.9699 11.9954 9.00022 11.9954C5.03667 11.9954 5.03058 6.00205 9.00022 6.00205Z" fill="currentColor"/>
</svg>
