<svg width="10" height="13" viewBox="0 0 10 13" fill="none" xmlns="http://www.w3.org/2000/svg">
<path fill-rule="evenodd" clip-rule="evenodd" d="M8.57146 1.5228C7.63356 0.552152 6.3808 0.0121605 5.04265 0.000160698H5.04132C3.70184 -0.0105058 2.44041 0.510153 1.48716 1.46547C-0.472697 3.42878 -0.498713 6.65006 1.42846 8.64536L4.46964 12.796C4.59438 12.9246 4.76515 12.998 4.94459 13C5.12403 13.0013 5.29614 12.9306 5.42222 12.8033L8.51343 8.70336C10.4726 6.73806 10.4986 3.51744 8.57146 1.5228ZM5 8C6.65685 8 8 6.65685 8 5C8 3.34315 6.65685 2 5 2C3.34315 2 2 3.34315 2 5C2 6.65685 3.34315 8 5 8Z" fill="white"/>
</svg>
