<svg width="19" height="19" viewBox="0 0 19 19" fill="none" xmlns="http://www.w3.org/2000/svg">
<path d="M0.293376 18.608C-0.0977537 18.2189 -0.0977536 17.5881 0.293376 17.199L17.2902 0.2918C17.6814 -0.0972665 18.3155 -0.0972669 18.7067 0.2918C19.0978 0.680867 19.0978 1.31167 18.7067 1.70074L1.70978 18.608C1.31865 18.997 0.684506 18.997 0.293376 18.608Z" fill="#262828"/>
<path d="M0.293347 0.392022C0.684477 0.00295486 1.31862 0.00295492 1.70975 0.392022L18.7066 17.2993C19.0978 17.6883 19.0978 18.3191 18.7066 18.7082C18.3155 19.0973 17.6813 19.0973 17.2902 18.7082L0.293348 1.80096C-0.0977822 1.41189 -0.0977827 0.781089 0.293347 0.392022Z" fill="#262828"/>
</svg>
