<svg width="12" height="19" viewBox="0 0 12 19" fill="none" xmlns="http://www.w3.org/2000/svg">
<path fill-rule="evenodd" clip-rule="evenodd" d="M5.95528 9.39861C3.41552 9.39016 1.22833 7.24201 1.24324 4.68957C1.25743 2.10867 3.44558 -0.00769753 6.01082 2.1046e-05C8.5816 0.0065336 10.7913 2.15306 10.7791 4.76025C10.7661 7.3069 8.52149 9.40705 5.95528 9.39861ZM5.9932 2.40181C7.29338 2.4028 8.3309 3.44353 8.33586 4.75071C8.33958 6.0569 7.30504 7.00085 6.00461 7.00558C4.70071 7.01056 3.65427 6.08029 3.6446 4.77882C3.63492 3.4592 4.68112 2.39982 5.9932 2.40181Z" fill="white"/>
<path d="M5.01577 13.2708C3.46747 13.1142 2.07039 12.7446 0.873707 11.8379C0.804412 11.7852 0.73409 11.7597 0.66506 11.7346C0.586315 11.706 0.509252 11.678 0.437314 11.611C-0.0859383 11.1234 -0.139048 10.5656 0.274844 9.98969C0.629348 9.49729 1.22429 9.24454 1.84251 9.52714C1.90941 9.55808 1.97475 9.63098 2.03844 9.70204C2.08858 9.75799 2.13771 9.81279 2.18576 9.84509C4.41482 11.3294 7.47558 11.2504 9.7138 9.79072C9.93566 9.62608 10.1716 9.49137 10.4466 9.42288C10.9811 9.2902 11.4787 9.6013 11.7649 10.0541C12.093 10.5714 12.0878 10.9559 11.6852 11.3572C11.0659 11.9727 10.3218 12.4186 9.49508 12.7299C8.71334 13.0232 7.85782 13.1708 7.00963 13.2697C7.04739 13.3093 7.07918 13.343 7.1073 13.3728C7.17501 13.4445 7.22138 13.4936 7.27832 13.5483C7.71238 13.9714 8.14715 14.3936 8.58187 14.8158C9.29971 15.5129 10.0176 16.2101 10.7318 16.9106C11.1221 17.2942 11.2038 17.7688 10.9892 18.2148C10.7532 18.7014 10.2268 19.0223 9.71066 18.9878C9.38363 18.966 9.12828 18.8084 8.90119 18.5864C8.61726 18.3095 8.33168 18.0342 8.04613 17.7589C7.4583 17.1923 6.8701 16.6253 6.29722 16.0445C6.04998 15.7929 5.93042 15.8403 5.71275 16.0585C4.83892 16.9304 3.95096 17.7896 3.05776 18.6428C2.65695 19.0263 2.17975 19.0956 1.71484 18.8767C1.2201 18.6448 0.905364 18.1552 0.929957 17.6638C0.946177 17.3307 1.11493 17.076 1.35091 16.8482C2.14794 16.0768 2.94329 15.3035 3.7386 14.5303C4.07944 14.1989 4.42026 13.8676 4.76121 13.5364C4.8096 13.4894 4.85552 13.4406 4.91098 13.3815C4.94218 13.3483 4.9764 13.3119 5.01577 13.2708Z" fill="white"/>
</svg>
