<svg width="16" height="13" viewBox="0 0 16 13" fill="none" xmlns="http://www.w3.org/2000/svg">
<path fill-rule="evenodd" clip-rule="evenodd" d="M13 3.99988L8.35357 6.91427C8.13429 7.02842 7.86571 7.02842 7.64643 6.91427L3 3.99988H13ZM0 3.06238C0 1.35606 1.40698 -0.00012207 3.1 -0.00012207H12.9C14.593 -0.00012207 16 1.35606 16 3.06238V9.93738C16 11.6437 14.593 12.9999 12.9 12.9999H3.1C1.40698 12.9999 0 11.6437 0 9.93738V3.06238ZM3.1 1.99988C2.47742 1.99988 2 2.49445 2 3.06238V9.93738C2 10.5053 2.47742 10.9999 3.1 10.9999H12.9C13.5226 10.9999 14 10.5053 14 9.93738V3.06238C14 2.49445 13.5226 1.99988 12.9 1.99988H3.1Z" fill="#44745C"/>
</svg>
