<svg width="16" height="12" viewBox="0 0 16 12" fill="none" xmlns="http://www.w3.org/2000/svg">
<path d="M0 4.00012C0 1.79098 1.79086 0.00012207 4 0.00012207H6C6.55228 0.00012207 7 0.447837 7 1.00012C7 1.55241 6.55228 2.00012 6 2.00012H4C2.89543 2.00012 2 2.89555 2 4.00012V8.00012C2 9.10469 2.89543 10.0001 4 10.0001H6C6.55228 10.0001 7 10.4478 7 11.0001C7 11.5524 6.55228 12.0001 6 12.0001H4C1.79086 12.0001 0 10.2093 0 8.00012V4.00012Z" fill="#44745C"/>
<path d="M4 6.00012C4 5.44784 4.44772 5.00012 5 5.00012H11C11.5523 5.00012 12 5.44784 12 6.00012C12 6.55241 11.5523 7.00012 11 7.00012H5C4.44772 7.00012 4 6.55241 4 6.00012Z" fill="#44745C"/>
<path d="M12 0.00012207C14.2091 0.00012207 16 1.79098 16 4.00012V8.00012C16 10.2093 14.2091 12.0001 12 12.0001H10C9.44772 12.0001 9 11.5524 9 11.0001C9 10.4478 9.44772 10.0001 10 10.0001H12C13.1046 10.0001 14 9.10469 14 8.00012V4.00012C14 2.89555 13.1046 2.00012 12 2.00012H10C9.44772 2.00012 9 1.55241 9 1.00012C9 0.447837 9.44772 0.00012207 10 0.00012207H12Z" fill="#44745C"/>
</svg>
