<svg width="16" height="16" viewBox="0 0 16 16" fill="none" xmlns="http://www.w3.org/2000/svg">
<path d="M11.78 15C5.8356 15 1 10.1644 1 4.22C1 2.4441 2.4448 1 4.22 1C4.402 1 4.5819 1.0154 4.7562 1.0455C4.9263 1.0728 5.0978 1.1162 5.2637 1.1736C5.4919 1.2527 5.6627 1.4438 5.7166 1.679L6.6756 5.8538C6.7281 6.0834 6.6616 6.3242 6.4985 6.495C6.4026 6.5944 6.4005 6.5965 5.5325 7.0508C6.2353 8.5726 7.4568 9.7899 8.9485 10.4689C9.4028 9.6002 9.4056 9.5974 9.505 9.5022C9.6765 9.3384 9.918 9.2747 10.1469 9.3251L14.3217 10.2834C14.5562 10.3373 14.7473 10.5081 14.8264 10.7356C14.8838 10.9008 14.9265 11.0716 14.9552 11.2473C14.9846 11.4202 15 11.5994 15 11.78C15 13.5559 13.5559 15 11.78 15" stroke="#44745C" stroke-width="2"/>
</svg>
