<svg width="41" height="40" viewBox="0 0 41 40" fill="none" xmlns="http://www.w3.org/2000/svg">
<path fill-rule="evenodd" clip-rule="evenodd" d="M9.80005 10H23.8V35H11.8C10.6955 35 9.80005 34.1046 9.80005 33V10ZM29.8 35H27.8V10H31.8V33C31.8 34.1046 30.9046 35 29.8 35ZM15.8 23C14.6955 23 13.8 23.8954 13.8 25V29C13.8 30.1046 14.6955 31 15.8 31C16.9046 31 17.8 30.1046 17.8 29V25C17.8 23.8954 16.9046 23 15.8 23Z" fill="#4E2FA9"/>
<path d="M7.80005 14H6.80005C5.69548 14 4.80005 13.1046 4.80005 12V8C4.80005 6.89543 5.69548 6 6.80005 6H34.8C35.9046 6 36.8 6.89543 36.8 8V12C36.8 13.1046 35.9046 14 34.8 14H33.8" stroke="#F3AC00" stroke-width="2"/>
</svg>
