<svg width="14" height="10" viewBox="0 0 14 10" fill="none" xmlns="http://www.w3.org/2000/svg">
<path d="M3.38479 0.814453C1.72093 0.814453 0.372101 2.2065 0.372101 3.92367V4.07172C0.372101 5.70713 1.6567 7.03288 3.24132 7.03288H3.38479V8.89841C3.38479 9.52025 3.98732 9.83117 4.3188 9.15262L5.80603 6.35575C6.1937 5.64996 6.39747 4.85251 6.39747 4.04121V3.92367C6.39747 2.2065 5.04865 0.814453 3.38479 0.814453Z" fill="currentColor"/>
<path d="M10.6152 0.814453C8.95137 0.814453 7.60255 2.2065 7.60255 3.92367V4.07172C7.60255 5.70713 8.88714 7.03288 10.4718 7.03288H10.6152V8.89841C10.6152 9.52025 11.2178 9.83117 11.5492 9.15262L13.0365 6.35575C13.4241 5.64996 13.6279 4.85251 13.6279 4.04121V3.92367C13.6279 2.2065 12.2791 0.814453 10.6152 0.814453Z" fill="currentColor"/>
</svg>
