<svg width="16" height="16" viewBox="0 0 16 16" fill="none" xmlns="http://www.w3.org/2000/svg">
<path fill-rule="evenodd" clip-rule="evenodd" d="M11.1663 8.79128C10.7293 8.79128 10.3747 8.43661 10.3747 7.99961C10.3747 7.56261 10.7293 7.20795 11.1663 7.20795C11.6033 7.20795 11.958 7.56261 11.958 7.99961C11.958 8.43661 11.6033 8.79128 11.1663 8.79128ZM7.99967 8.79128C7.56267 8.79128 7.20801 8.43661 7.20801 7.99961C7.20801 7.56261 7.56267 7.20795 7.99967 7.20795C8.43667 7.20795 8.79134 7.56261 8.79134 7.99961C8.79134 8.43661 8.43667 8.79128 7.99967 8.79128ZM4.83301 8.79128C4.39601 8.79128 4.04134 8.43661 4.04134 7.99961C4.04134 7.56261 4.39601 7.20795 4.83301 7.20795C5.27001 7.20795 5.62467 7.56261 5.62467 7.99961C5.62467 8.43661 5.27001 8.79128 4.83301 8.79128ZM13.5975 2.40175C11.7894 0.593587 9.28692 -0.213121 6.73063 0.18192C3.503 0.68542 0.827169 3.28525 0.223128 6.50496C-0.0674139 8.05505 0.0996278 9.63363 0.706836 11.0689C0.784419 11.251 0.808169 11.422 0.777294 11.5748L0.0988361 14.9695C0.0465861 15.2291 0.128128 15.4975 0.314961 15.6843C0.464586 15.834 0.666461 15.9163 0.874669 15.9163C0.926128 15.9163 0.978378 15.9115 1.02984 15.9005L4.42054 15.2228C4.61529 15.1856 4.8045 15.2402 4.93038 15.2925C6.36646 15.8997 7.94504 16.0659 9.49434 15.7762C12.714 15.1721 15.3139 12.4963 15.8174 9.26867C16.2156 6.71317 15.4065 4.21071 13.5975 2.40175Z" fill="currentColor"/>
</svg>
