<svg width="41" height="40" viewBox="0 0 41 40" fill="none" xmlns="http://www.w3.org/2000/svg">
<path d="M11.6809 16.6943C12.2373 18.9201 15.1588 22.2589 16.5499 23.6501C17.9411 25.0412 21.2799 27.9627 23.5057 28.5191C26.2881 29.2147 26.6359 28.1713 27.3314 26.7802C28.027 25.389 29.0704 23.6501 31.505 23.9979C33.9395 24.3457 34.9828 23.9978 36.0262 25.0412C37.0695 26.0846 37.4174 29.9103 37.0696 32.3449C36.7218 34.7794 34.2873 36.5183 32.5483 36.8661C30.8094 37.2139 20.7234 37.5617 11.6809 28.5191C2.6383 19.4766 2.98609 9.39063 3.33388 7.65168C3.68167 5.91273 5.42062 3.4782 7.85515 3.13041C10.2897 2.78262 14.1154 3.13047 15.1588 4.17384C16.2022 5.21721 15.8543 6.26053 16.2021 8.69506C16.5499 11.1296 14.811 12.173 13.4198 12.8686C12.0287 13.5642 10.9853 13.9119 11.6809 16.6943Z" fill="#4E2FA9"/>
<path d="M27.1412 18C27.1412 15.2711 24.9289 13.0588 22.2 13.0588M30.6706 18C30.6706 13.3218 26.8782 9.52941 22.2 9.52941M34.2 18C34.2 11.3726 28.8274 6 22.2 6" stroke="#F3AC00" stroke-width="2"/>
</svg>
