<svg width="26" height="26" viewBox="0 0 26 26" fill="none" xmlns="http://www.w3.org/2000/svg">
<path d="M10.7499 10.2655C10.1905 10.7229 9.78817 11.3433 9.59801 12.0418C9.40784 12.7404 9.43913 13.4829 9.68757 14.1678C9.93601 14.8526 10.3895 15.4463 10.9859 15.8676C11.5822 16.2889 12.2924 16.5171 13.0191 16.521C13.7458 16.525 14.4536 16.3044 15.0454 15.8896C15.6373 15.4748 16.0843 14.886 16.3253 14.2037C16.5663 13.5215 16.5895 12.7793 16.3918 12.0786C16.194 11.378 15.7849 10.7532 15.2206 10.2898C14.5869 9.7712 13.7957 9.48551 12.9809 9.48109C12.1661 9.47668 11.3779 9.75381 10.7499 10.2655ZM19.2123 6.79436C19.483 7.06803 19.7352 7.35948 19.967 7.66672L23.1065 7.30445C23.2467 7.29211 23.3872 7.32984 23.5031 7.41095C23.6191 7.49206 23.7029 7.61129 23.7398 7.74746L24.9807 12.2966C25.0161 12.4326 25.0025 12.5761 24.9423 12.7019C24.8821 12.8278 24.7791 12.9279 24.6514 12.9846L22.2045 14.0146C22.07 14.0719 21.9521 14.1617 21.8615 14.2761C21.771 14.3905 21.7104 14.5258 21.6854 14.67C21.6048 15.1197 21.49 15.5623 21.3421 15.9939C21.2957 16.1297 21.2837 16.2752 21.307 16.4175C21.3303 16.5599 21.3883 16.6946 21.4758 16.81L23.0903 18.9435C23.1722 19.0595 23.2115 19.1999 23.2016 19.3407C23.1916 19.4815 23.133 19.6139 23.0357 19.7154L19.7225 23.025C19.623 23.121 19.4934 23.1799 19.355 23.192C19.2166 23.2041 19.0777 23.1687 18.9612 23.0917L16.8285 21.4813C16.7113 21.3934 16.5745 21.3356 16.4302 21.3129C16.2859 21.2903 16.1386 21.3036 16.0015 21.3516C15.5705 21.4997 15.128 21.6129 14.6781 21.6902C14.5343 21.7152 14.3995 21.7756 14.2856 21.866C14.1717 21.9564 14.0825 22.0739 14.0259 22.2079L12.9947 24.6516C12.9381 24.779 12.838 24.882 12.7121 24.9422C12.5862 25.0024 12.4425 25.0161 12.3065 24.9808L7.75245 23.7413C7.61608 23.7045 7.49666 23.6208 7.41545 23.505C7.33423 23.3891 7.2965 23.2487 7.30897 23.1087L7.61428 20.4569C7.6303 20.3109 7.60952 20.1628 7.55383 20.0261C7.49814 19.8894 7.4093 19.7684 7.29538 19.674C7.11816 19.5249 6.94675 19.3707 6.78348 19.2076C6.6202 19.0445 6.4678 18.876 6.32238 18.7021C6.2275 18.59 6.10644 18.5029 5.97012 18.4487C5.83379 18.3945 5.68648 18.3749 5.54146 18.3917L2.88764 18.6959C2.74838 18.7068 2.6092 18.6683 2.49448 18.5873C2.37977 18.5062 2.29683 18.3877 2.26021 18.2525L1.01933 13.7034C0.983886 13.5674 0.997475 13.4239 1.0577 13.2981C1.11793 13.1722 1.22093 13.0721 1.34855 13.0154L3.79554 11.9854C3.93005 11.9281 4.04787 11.8383 4.13846 11.7239C4.22904 11.6095 4.28956 11.4742 4.31459 11.33C4.39524 10.8803 4.51 10.4377 4.65788 10.0061C4.70425 9.87029 4.71631 9.72479 4.69299 9.58246C4.66967 9.44013 4.61168 9.30535 4.52416 9.19001L2.90971 7.0565C2.8278 6.94047 2.78846 6.80007 2.79842 6.65928C2.80838 6.51849 2.86702 6.38606 2.96432 6.28461L6.27746 2.97499C6.37696 2.87902 6.50658 2.82012 6.64497 2.808C6.78336 2.79588 6.92227 2.83126 7.03881 2.90832L9.17147 4.5187C9.2887 4.6066 9.42554 4.66444 9.56983 4.68708C9.71412 4.70971 9.86138 4.69644 9.99853 4.64844C10.4295 4.5003 10.872 4.38705 11.3219 4.30979C11.4657 4.28478 11.6005 4.22436 11.7144 4.13398C11.8283 4.0436 11.9175 3.92609 11.9741 3.79205L13.0053 1.34844C13.0619 1.22097 13.162 1.11805 13.2879 1.05781C13.4138 0.997582 13.5575 0.983901 13.6935 1.01918L18.2475 2.25873C18.3839 2.29546 18.5033 2.37919 18.5846 2.49504C18.6658 2.61088 18.7035 2.75132 18.691 2.89133L18.3857 5.54311C18.3691 5.68924 18.3895 5.83759 18.4448 5.97465C18.5002 6.11172 18.5888 6.23315 18.7027 6.3279C18.8776 6.47706 19.049 6.63126 19.2123 6.79436Z" stroke="white" stroke-width="2" stroke-linecap="round" stroke-linejoin="round"/>
</svg>
