<svg width="10" height="8" viewBox="0 0 10 8" fill="none" xmlns="http://www.w3.org/2000/svg">
<path d="M2.3784 2.84921C2.01898 2.42988 1.38768 2.38132 0.968349 2.74074C0.549023 3.10017 0.500462 3.73147 0.859884 4.15079L2.3784 2.84921ZM4.61914 7L3.85988 7.65079C4.06521 7.89034 4.37155 8.01894 4.68634 7.99774C5.00113 7.97654 5.28745 7.80802 5.45881 7.5431L4.61914 7ZM9.33967 1.5431C9.63961 1.07937 9.50684 0.460283 9.0431 0.160335C8.57937 -0.139614 7.96028 -0.00683832 7.66033 0.456896L9.33967 1.5431ZM0.859884 4.15079L3.85988 7.65079L5.3784 6.34921L2.3784 2.84921L0.859884 4.15079ZM5.45881 7.5431L9.33967 1.5431L7.66033 0.456896L3.77948 6.4569L5.45881 7.5431Z" fill="currentColor"/>
</svg>
