<svg width="8" height="40" viewBox="0 0 8 40" fill="none" xmlns="http://www.w3.org/2000/svg">
<path d="M0 2C0 0.89543 0.895431 0 2 0L6 0C7.10457 0 8 0.895431 8 2L8 33.3496C8 33.7723 7.86608 34.1841 7.61747 34.526L4 39.5L0.382528 34.526C0.133916 34.1841 0 33.7723 0 33.3496L0 2Z" fill="#262828"/>
<path d="M0 2C0 0.89543 0.895431 0 2 0L6 0C7.10457 0 8 0.895431 8 2L8 33.7984C8 34.2526 7.84544 34.6932 7.56174 35.0478L6.34261 36.5717C5.14163 38.073 2.85837 38.073 1.65739 36.5717L0.438262 35.0478C0.154562 34.6932 0 34.2526 0 33.7984L0 2Z" fill="#FCCB50"/>
<path d="M4 34C4.71456 34 8 34 8 34L8 2C8 0.895447 7.10547 0 6 0L2 0C3.10547 0 4 0.895447 4 2L4 34Z" fill="#FAA621"/>
<path d="M0 2C0 0.895431 0.895431 0 2 0L6 0C7.10457 0 8 0.895431 8 2V4H0L0 2Z" fill="#EB5757"/>
<path d="M0 4H8V6H0L0 4Z" fill="#F2F2F2"/>
</svg>
