<svg width="36" height="36" viewBox="0 0 36 36" fill="none" xmlns="http://www.w3.org/2000/svg">
<path d="M2.19314 7.70628C2.35045 7.9575 2.53827 8.19505 2.75674 8.41351L4.17095 9.82773C5.73307 11.3898 8.26582 11.3897 9.82781 9.82773C11.3898 8.26574 11.3899 5.73299 9.82781 4.17087L8.4136 2.75666C8.33695 2.68001 8.25823 2.60681 8.17761 2.53724C8.02759 2.40932 7.86932 2.29525 7.70636 2.19306C9.25013 1.22605 11.3126 1.41305 12.6562 2.75666L15.4847 5.58509C16.8026 6.90301 17.0082 8.91225 16.1026 10.4457L25.4732 19.8163C27.0067 18.9108 29.016 19.1164 30.3339 20.4343L33.1623 23.2627C34.5059 24.6064 34.6944 26.6675 33.7259 28.2126C33.5686 27.9614 33.3808 27.7239 33.1623 27.5054L31.7481 26.0911C30.186 24.5291 27.6532 24.5292 26.0912 26.0911C24.5292 27.6531 24.5291 30.1859 26.0912 31.748L27.5054 33.1622C27.7239 33.3807 27.9615 33.5685 28.2127 33.7259C26.6676 34.6943 24.6064 34.5059 23.2628 33.1622L20.4344 30.3338C19.1165 29.0159 18.9109 27.0067 19.8164 25.4732L10.4458 16.1026C8.91233 17.0081 6.9031 16.8025 5.58517 15.4846L2.75674 12.6562C1.41313 11.3125 1.22613 9.25005 2.19314 7.70628Z" fill="#B9B9B9"/>
<path fill-rule="evenodd" clip-rule="evenodd" d="M9.82787 9.82767L26.0005 26L19.728 25.6309C19.7562 25.5778 19.7856 25.5252 19.8164 25.4732L10.4458 16.1026C8.91233 17.0081 6.9031 16.8025 5.58517 15.4846L2.75674 12.6562C1.41313 11.3125 1.22613 9.25005 2.19314 7.70628C2.35045 7.9575 2.53827 8.19505 2.75674 8.41351L4.17095 9.82773C5.73307 11.3898 8.26582 11.3897 9.82781 9.82773C9.82783 9.82771 9.82785 9.82769 9.82787 9.82767Z" fill="#7A7A7A"/>
<path d="M27.5174 2.31363C28.2985 1.53258 29.5648 1.53258 30.3459 2.31363L33.1743 5.14205C33.9553 5.9231 33.9553 7.18943 33.1743 7.97048L11.0067 30.138C10.7079 30.4369 10.322 30.6334 9.90446 30.6993L3.82935 31.6586L4.78858 25.5835C4.8545 25.1659 5.05101 24.78 5.34989 24.4812L27.5174 2.31363Z" fill="#262828"/>
<path d="M27.5174 2.31363C28.2985 1.53258 29.5648 1.53258 30.3459 2.31363L33.1743 5.14205C33.9553 5.9231 33.9553 7.18943 33.1743 7.97048L10.6894 30.4554C10.3683 30.7765 9.9474 30.9788 9.49604 31.0289L7.55642 31.2444C5.64568 31.4567 4.03117 29.8422 4.24347 27.9315L4.45898 25.9919C4.50913 25.5405 4.71141 25.1196 5.03254 24.7985L27.5174 2.31363Z" fill="#FCCB50"/>
<path d="M7.71829 27.7696C8.22356 28.2748 10.5467 30.598 10.5467 30.598L33.1741 7.97057C33.9552 7.18954 33.9558 5.92383 33.1741 5.14215L30.3457 2.31372C31.1274 3.09541 31.1267 4.36111 30.3457 5.14215L7.71829 27.7696Z" fill="#FAA621"/>
<path d="M27.5174 2.31363C28.2985 1.53258 29.5648 1.53258 30.3459 2.31363L33.1743 5.14205C33.9553 5.9231 33.9553 7.18943 33.1743 7.97048L31.7601 9.3847L26.1032 3.72784L27.5174 2.31363Z" fill="#EB5757"/>
<path d="M26.1035 3.72778L31.7604 9.38464L30.3462 10.7989L24.6893 5.142L26.1035 3.72778Z" fill="#F2F2F2"/>
</svg>
