<svg width="20" height="14" viewBox="0 0 20 14" fill="none" xmlns="http://www.w3.org/2000/svg">
<path d="M19.5879 11.8093C19.3575 12.666 18.6819 13.3412 17.8252 13.5719C16.2602 14 9.99977 14 9.99977 14C9.99977 14 3.73963 14 2.17456 13.5881C1.33435 13.3577 0.642335 12.6658 0.411866 11.8093C0 10.2447 0 7 0 7C0 7 0 3.7389 0.411866 2.19067C0.642579 1.33417 1.31787 0.658909 2.17469 0.428248C3.75611 0 10 0 10 0C10 0 16.2602 0 17.8252 0.411894C18.682 0.642433 19.3575 1.31769 19.5882 2.17419C19.9999 3.7389 19.9999 6.98352 19.9999 6.98352C19.9999 6.98352 20.0164 10.2447 19.5879 11.8093ZM8.00661 4.00239V9.99761L13.2124 7L8.00661 4.00239Z" fill="white"/>
</svg>
