<svg width="27" height="27" viewBox="0 0 27 27" fill="none" xmlns="http://www.w3.org/2000/svg">
<path opacity="0.4" fill-rule="evenodd" clip-rule="evenodd" d="M13.5046 5.14036e-07C16.1743 0.000920927 18.7837 0.793044 21.0031 2.2768C23.2224 3.76056 24.952 5.86893 25.9733 8.33554C26.9945 10.8022 27.2614 13.5165 26.7404 16.1348C26.2193 18.7532 24.9337 21.158 23.0459 23.0456C21.1582 24.9334 18.7532 26.2193 16.1349 26.7404C13.5165 27.2614 10.8026 26.9945 8.33596 25.9732C5.86936 24.952 3.76089 23.2223 2.27714 21.0029C0.793382 18.7835 0.000920923 16.1742 5.13533e-07 13.5045C-0.000488618 11.7308 0.348445 9.97466 1.02694 8.33599C1.70544 6.69731 2.70016 5.2083 3.95428 3.95418C5.2084 2.70005 6.6974 1.70511 8.33608 1.02661C9.97472 0.348104 11.7311 -0.000488619 13.5046 5.14036e-07ZM13.5046 3.05255C15.5718 3.05255 17.5926 3.66553 19.3113 4.814C21.0302 5.96247 22.3699 7.595 23.1609 9.50484C23.952 11.4147 24.159 13.5161 23.7557 15.5436C23.3524 17.5711 22.3569 19.4334 20.8952 20.8952C19.4335 22.3569 17.5712 23.3522 15.5437 23.7555C13.5163 24.1588 11.4147 23.9517 9.5049 23.1607C7.59509 22.3696 5.96268 21.0303 4.81421 19.3114C3.66574 17.5927 3.05276 15.5717 3.05276 13.5045C3.05351 10.7326 4.15489 8.0746 6.11484 6.11463C8.07479 4.15468 10.7329 3.05329 13.5046 3.05255ZM11.9783 6.09601L6.29162 15.7194C6.44039 16.4668 6.69096 17.1902 7.03624 17.8695C7.21604 18.1496 7.45413 18.3877 7.73427 18.5675H19.1634C19.7562 18.0391 20.2318 17.3923 20.5594 16.6688C20.6788 16.4014 20.7483 16.1146 20.7643 15.8222L15.1241 6.09601C14.6174 5.79665 14.0458 5.62419 13.4581 5.59339C13.1901 5.56971 12.9201 5.60228 12.6653 5.68882C12.4105 5.77535 12.1764 5.91398 11.9783 6.09601ZM13.6256 9.93064L17.0414 15.5986H10.2099L13.6256 9.93064Z" fill="currentColor"/>
</svg>
