<svg width="15" height="13" viewBox="0 0 15 13" fill="none" xmlns="http://www.w3.org/2000/svg">
<path fill-rule="evenodd" clip-rule="evenodd" d="M15 1.5378C14.4504 1.79785 13.8552 1.97788 13.233 2.05665C13.8692 1.65032 14.3543 1.00644 14.5875 0.238796C13.9923 0.615118 13.3337 0.888921 12.6283 1.0352C12.0705 0.400077 11.269 0 10.3855 0C8.6876 0 7.30959 1.47028 7.30959 3.28188C7.30959 3.54068 7.33771 3.78948 7.38809 4.02952C4.82892 3.892 2.56386 2.588 1.04406 0.600115C0.778064 1.08396 0.626904 1.65032 0.626904 2.25168C0.626904 3.3894 1.17178 4.39585 1.99555 4.98096C1.49168 4.96721 1.02062 4.81593 0.60464 4.57088V4.61089C0.60464 6.20244 1.66628 7.5302 3.07124 7.83401C2.81462 7.90652 2.54043 7.94528 2.26154 7.94528C2.06468 7.94528 1.87251 7.92652 1.68034 7.88777C2.07406 9.19177 3.20834 10.1382 4.55472 10.1682C3.50129 11.0471 2.17366 11.5697 0.732365 11.5697C0.485118 11.5697 0.242559 11.5547 0 11.526C1.36396 12.4586 2.97985 13 4.71877 13C10.3761 13 13.4708 7.99904 13.4708 3.6632L13.4614 3.23812C14.0661 2.77428 14.5875 2.19792 15 1.5378Z" fill="currentColor"/>
</svg>
