<svg width="16" height="9" viewBox="0 0 16 9" fill="none" xmlns="http://www.w3.org/2000/svg">
<path fill-rule="evenodd" clip-rule="evenodd" d="M13.6224 5.50152C14.0721 5.95553 14.5536 6.3806 14.9889 6.84716C15.3054 7.18659 15.5984 7.55495 15.8492 7.94253C16.1663 8.43287 15.9704 8.89473 15.3777 8.97707C15.0051 9.02848 13.1841 8.97742 13.09 8.97707C12.6004 8.97492 12.1713 8.80849 11.8256 8.48293C11.4414 8.12043 11.0919 7.72293 10.7229 7.34477C10.6117 7.23079 10.4931 7.12147 10.365 7.02626C10.0633 6.80081 9.76693 6.85087 9.62578 7.19795C9.50534 7.49613 9.4011 8.2792 9.3963 8.34587C9.37094 8.69566 9.14371 8.91861 8.74373 8.94008C7.5887 9.0015 6.4696 8.87536 5.42703 8.32851C4.5434 7.86509 3.83767 7.21007 3.22641 6.44592C2.25552 5.23247 1.48849 3.8986 0.788386 2.52537C0.752601 2.4552 0.0432922 0.977559 0.0243262 0.907781C-0.0391665 0.674122 0.0199298 0.450825 0.221655 0.37394C0.347464 0.326037 2.68565 0.37394 2.72461 0.375942C3.09764 0.395664 3.35202 0.549735 3.50916 0.929055C3.95591 2.00915 4.52203 3.02748 5.26769 3.94159C5.3665 4.06323 5.49114 4.17135 5.62252 4.2595C5.81422 4.38839 5.99514 4.34319 6.07326 4.1283C6.15572 3.90285 6.23138 3.44594 6.23598 3.20913C6.24814 2.5905 6.23398 2.18515 6.20024 1.56726C6.17806 1.17152 6.03451 0.824089 5.44002 0.719273C5.25649 0.686787 5.23931 0.538773 5.35735 0.391159C5.60274 0.0838183 5.94484 0.0349141 6.31588 0.0155426C6.91691 -0.0162927 7.5204 0.00968613 8.1223 0.0155426C8.36748 0.017695 8.61414 0.0370665 8.85553 0.0886737C9.17065 0.155748 9.33919 0.372188 9.39113 0.673121C9.41807 0.828594 9.43188 0.98812 9.42809 1.14534C9.4125 1.82049 9.37917 2.49544 9.37135 3.17024C9.36798 3.43518 9.38776 3.70658 9.44563 3.96467C9.5265 4.32422 9.77654 4.41437 10.0321 4.15473C10.3569 3.82466 10.6432 3.45355 10.9118 3.07638C11.3998 2.39067 11.7645 1.63784 12.0782 0.86183C12.2405 0.461387 12.365 0.37434 12.8049 0.373389C13.6318 0.371437 14.4587 0.370836 15.2857 0.373389C15.4322 0.37394 15.5856 0.387655 15.7242 0.430653C15.9486 0.50088 16.0379 0.680179 15.9854 0.907932C15.8626 1.44137 15.568 1.89478 15.2527 2.33061C14.7467 3.03003 14.2165 3.71264 13.6985 4.40381C13.6326 4.492 13.5743 4.58586 13.5202 4.68126C13.3265 5.02384 13.3398 5.21606 13.6224 5.50152Z" fill="currentColor"/>
</svg>
