<svg width="17" height="19" viewBox="0 0 17 19" fill="none" xmlns="http://www.w3.org/2000/svg">
<path fill-rule="evenodd" clip-rule="evenodd" d="M6.9496 15.5995C6.9496 15.5995 4.87149 18.1908 4.22522 18.8635C4.01362 19.0821 3.78174 19.0619 3.78526 18.6281C3.78526 18.3433 3.80113 15.0872 3.80113 15.0872C-0.126271 13.9617 -0.0376239 9.83548 0.0128007 7.48835C0.0145953 7.40482 0.0163415 7.32354 0.0178565 7.24473C0.0619403 4.95061 0.481619 3.07176 1.71949 1.80655C4.57524 -0.871104 12.6311 -0.272445 14.6837 1.65666C16.9677 3.68143 16.4327 9.07005 16.3223 10.1828C16.3114 10.2926 16.3046 10.3607 16.3051 10.38C15.8407 14.2492 13.3298 14.8555 12.4262 15.0737C12.3263 15.0978 12.246 15.1172 12.1903 15.1357C11.9514 15.2151 9.73394 15.7855 6.9496 15.5995ZM8.09924 2.30998C7.75979 2.30998 7.75979 2.83899 8.09924 2.84339C10.7328 2.86367 12.9017 4.69932 12.9255 8.06645C12.9255 8.42176 13.4457 8.41736 13.4413 8.06204C13.4131 4.43394 11.044 2.33026 8.09924 2.30998ZM12.0792 7.5207C12.0748 7.87601 11.5555 7.85926 11.5634 7.50835C11.604 5.75646 10.5451 4.38457 8.53483 4.23204C8.19627 4.20736 8.23154 3.67394 8.57098 3.69863C10.8889 3.87232 12.1224 5.52017 12.0792 7.5207ZM11.008 9.78396C10.5725 9.5318 10.129 9.68874 9.94563 9.93649L9.5621 10.4329C9.36725 10.685 9.00312 10.6515 9.00312 10.6515C6.34574 9.94883 5.63511 7.16802 5.63511 7.16802C5.63511 7.16802 5.60249 6.79155 5.84583 6.58964L6.32546 6.19289C6.56528 6.00245 6.71693 5.54397 6.4727 5.09344C5.98075 4.2046 5.61061 3.75488 5.36266 3.45361C5.28177 3.35533 5.21387 3.27284 5.15901 3.19607C4.92448 2.90247 4.57181 2.83634 4.20503 3.03472H4.1971C3.43445 3.48085 2.5995 4.3158 2.86665 5.17543C2.94569 5.3326 3.03621 5.54938 3.14577 5.81177C3.66804 7.06256 4.623 9.3496 6.82978 11.1541C8.08441 12.1865 10.0699 13.2445 10.9128 13.4888L10.9208 13.5011C11.7513 13.778 12.5589 12.9104 12.9901 12.1248V12.1186C13.1814 11.7386 13.1179 11.3789 12.8384 11.1435C12.3429 10.6603 11.5952 10.1269 11.008 9.78396ZM10.2366 7.06751C10.1925 6.1585 9.78169 5.71589 8.9344 5.66652C8.59142 5.64624 8.62316 5.11283 8.96261 5.13311C10.0771 5.19482 10.696 5.85608 10.7524 7.04282C10.7683 7.39813 10.2525 7.42282 10.2366 7.06751Z" fill="currentColor"/>
</svg>
