<svg width="16" height="12" viewBox="0 0 16 12" fill="none" xmlns="http://www.w3.org/2000/svg">
<path d="M15.5505 9.89985C15.369 10.5744 14.837 11.1062 14.1624 11.2879C12.9299 11.625 7.99982 11.625 7.99982 11.625C7.99982 11.625 3.06996 11.625 1.83747 11.3006C1.1758 11.1192 0.630839 10.5743 0.449345 9.89985C0.125 8.66774 0.125 6.1125 0.125 6.1125C0.125 6.1125 0.125 3.54438 0.449345 2.32515C0.631031 1.65066 1.16283 1.11889 1.83757 0.937244C3.08294 0.599999 8.00002 0.599999 8.00002 0.599999C8.00002 0.599999 12.9299 0.599999 14.1624 0.924366C14.8371 1.10591 15.369 1.63768 15.5507 2.31217C15.8749 3.54438 15.8749 6.09952 15.8749 6.09952C15.8749 6.09952 15.8879 8.66774 15.5505 9.89985V9.89985ZM6.4302 3.75188V8.47312L10.5298 6.1125L6.4302 3.75188Z" fill="currentColor"/>
</svg>
