<svg width="207" height="55" viewBox="0 0 207 55" fill="none" xmlns="http://www.w3.org/2000/svg">
<g clip-path="url(#clip0)">
<path fill-rule="evenodd" clip-rule="evenodd" d="M54.6198 32.0833C54.8698 30.5928 55 29.0616 55 27.5C55 12.3122 42.6878 0 27.5 0C17.3211 0 8.43389 5.53023 3.67901 13.75H33.2292H41.4986L37.1158 20.7625L30.0403 32.0833H54.6198ZM51.321 41.25C46.5661 49.4698 37.6789 55 27.5 55C12.3122 55 0 42.6878 0 27.5C0 25.9384 0.130161 24.4072 0.380226 22.9167H24.9597L17.8842 34.2375L13.5014 41.25H21.7708H51.321Z" fill="var(--custom-color-1, #E8903F)"/>
<path d="M18 18.3333H33.2292L21.7708 36.6666H37" stroke="var(--custom-color-2, #44745c)" stroke-width="9.16667" stroke-linecap="square"/>
<path d="M71.3929 38V32.4286L80.8333 21.9048H71.8571V16.3333H88.7262V21.9048L79.2857 32.4286H89.0357V38H71.3929ZM91.981 38V16.3333H108.541V21.5952H97.862V24.6905H106.064V29.6429H97.862V32.7381H108.85V38H91.981ZM134.224 30.4167L137.783 34.4405C137.082 35.2452 136.277 35.9468 135.369 36.5452C133.347 37.9278 131.005 38.619 128.343 38.619C124.897 38.619 122.018 37.5151 119.707 35.3071C117.417 33.0786 116.271 30.3651 116.271 27.1667C116.271 23.9683 117.417 21.2651 119.707 19.0571C122.018 16.8286 124.897 15.7143 128.343 15.7143C130.943 15.7143 133.264 16.4159 135.307 17.819C136.215 18.4587 136.989 19.15 137.629 19.8929L134.069 23.9167C133.594 23.4008 133.068 22.9365 132.49 22.5238C131.149 21.5952 129.767 21.131 128.343 21.131C126.651 21.131 125.217 21.719 124.04 22.8952C122.885 24.0508 122.307 25.4746 122.307 27.1667C122.307 28.8587 122.885 30.2929 124.04 31.469C125.217 32.6246 126.651 33.2024 128.343 33.2024C129.746 33.2024 131.149 32.7381 132.552 31.8095C133.171 31.3968 133.729 30.9325 134.224 30.4167ZM142.12 38V27.7857H137.787V22.8333H151.715V27.7857H147.382V38H142.12ZM153.27 44.5V22.8333H158.532V25H158.687C158.955 24.5667 159.296 24.154 159.708 23.7619C160.658 22.9365 161.813 22.5238 163.175 22.5238C165.012 22.5238 166.58 23.2563 167.88 24.7214C169.18 26.1865 169.83 28.0849 169.83 30.4167C169.83 32.7484 169.18 34.6468 167.88 36.1119C166.58 37.577 165.012 38.3095 163.175 38.3095C161.813 38.3095 160.658 37.8968 159.708 37.0714C159.296 36.6794 158.955 36.2667 158.687 35.8333H158.532V44.5H153.27ZM159.399 32.6143C159.997 33.2127 160.689 33.5119 161.473 33.5119C162.257 33.5119 162.938 33.2127 163.516 32.6143C164.114 31.9952 164.413 31.2627 164.413 30.4167C164.413 29.5706 164.114 28.8484 163.516 28.25C162.938 27.631 162.257 27.3214 161.473 27.3214C160.689 27.3214 159.997 27.631 159.399 28.25C158.821 28.8484 158.532 29.5706 158.532 30.4167C158.532 31.2627 158.821 31.9952 159.399 32.6143ZM177.348 32.6143C177.946 33.2127 178.637 33.5119 179.422 33.5119C180.206 33.5119 180.887 33.2127 181.464 32.6143C182.063 31.9952 182.362 31.2627 182.362 30.4167C182.362 29.5706 182.063 28.8484 181.464 28.25C180.887 27.631 180.206 27.3214 179.422 27.3214C178.637 27.3214 177.946 27.631 177.348 28.25C176.77 28.8484 176.481 29.5706 176.481 30.4167C176.481 31.2627 176.77 31.9952 177.348 32.6143ZM173.448 36.019C171.859 34.4714 171.064 32.604 171.064 30.4167C171.064 28.2294 171.859 26.3722 173.448 24.8452C175.057 23.2976 177.048 22.5238 179.422 22.5238C181.795 22.5238 183.775 23.2976 185.364 24.8452C186.974 26.3722 187.779 28.2294 187.779 30.4167C187.779 32.604 186.974 34.4714 185.364 36.019C183.775 37.546 181.795 38.3095 179.422 38.3095C177.048 38.3095 175.057 37.546 173.448 36.019ZM192.123 15.869H195.837C195.837 16.3436 195.971 16.7254 196.24 17.0143C196.528 17.2825 196.91 17.4167 197.385 17.4167C197.859 17.4167 198.231 17.2825 198.499 17.0143C198.788 16.7254 198.932 16.3436 198.932 15.869H202.647C202.647 17.2722 202.151 18.4484 201.161 19.3976C200.17 20.3468 198.912 20.8214 197.385 20.8214C195.858 20.8214 194.599 20.3468 193.609 19.3976C192.618 18.4484 192.123 17.2722 192.123 15.869ZM189.801 38V22.8333H195.063V29.7976L200.48 22.8333H204.968V38H199.706V31.0357L194.29 38H189.801Z" fill="var(--custom-color-2, #44745c)"/>
</g>
<defs>
<clipPath id="clip0">
<rect width="207" height="55" fill="white"/>
</clipPath>
</defs>
</svg>
